<svg width="439" height="75" viewBox="0 0 439 75" fill="none" xmlns="http://www.w3.org/2000/svg">
<path d="M234.784 62.72C228.976 62.72 224.296 60.824 220.744 57.032L223.336 52.496L223.624 51.848L224.128 52.136C224.224 52.472 224.344 52.856 224.488 53.288C224.632 53.672 224.968 54.152 225.496 54.728C226.744 55.784 228.184 56.624 229.816 57.248C231.496 57.872 233.392 58.184 235.504 58.184C238.192 58.184 240.4 57.44 242.128 55.952C243.904 54.416 244.792 52.592 244.792 50.48C244.792 49.088 244.504 47.912 243.928 46.952C243.4 45.992 242.392 45.056 240.904 44.144C239.464 43.232 237.328 42.176 234.496 40.976C229.84 39.152 226.624 37.112 224.848 34.856C223.072 32.6 222.184 30.2 222.184 27.656C222.184 24.344 223.408 21.68 225.856 19.664C228.304 17.6 231.64 16.568 235.864 16.568C238.312 16.568 240.616 17.072 242.776 18.08C244.936 19.04 246.784 20.408 248.32 22.184L245.08 26.504L244.648 26.216C244.6 25.832 244.504 25.448 244.36 25.064C244.216 24.68 243.88 24.2 243.352 23.624C242.2 22.52 240.976 21.776 239.68 21.392C238.384 20.96 236.848 20.744 235.072 20.744C232.72 20.744 230.848 21.392 229.456 22.688C228.064 23.984 227.368 25.52 227.368 27.296C227.368 28.64 227.656 29.84 228.232 30.896C228.856 31.904 229.96 32.912 231.544 33.92C233.128 34.928 235.432 36.032 238.456 37.232C241.384 38.432 243.664 39.656 245.296 40.904C246.928 42.104 248.08 43.424 248.752 44.864C249.424 46.256 249.76 47.888 249.76 49.76C249.76 51.824 249.232 53.864 248.176 55.88C247.168 57.848 245.56 59.48 243.352 60.776C241.144 62.072 238.288 62.72 234.784 62.72ZM272.584 62.72C267.784 62.72 263.896 61.256 260.92 58.328C257.992 55.4 256.528 51.176 256.528 45.656C256.528 41.912 257.2 38.768 258.544 36.224C259.936 33.632 261.76 31.664 264.016 30.32C266.32 28.976 268.864 28.304 271.648 28.304C274.144 28.304 276.4 28.856 278.416 29.96C280.432 31.064 282.04 32.768 283.24 35.072C284.44 37.376 285.04 40.328 285.04 43.928C285.04 44.312 285.016 44.72 284.968 45.152C284.968 45.536 284.944 45.92 284.896 46.304H261.496C261.688 50.528 262.864 53.624 265.024 55.592C267.232 57.56 269.8 58.544 272.728 58.544C276.184 58.544 279.016 57.32 281.224 54.872L284.104 57.68C281.32 61.04 277.48 62.72 272.584 62.72ZM261.712 42.272H279.784C279.784 39.2 278.992 36.776 277.408 35C275.872 33.176 273.832 32.264 271.288 32.264C269.032 32.264 266.992 33.08 265.168 34.712C263.344 36.296 262.192 38.816 261.712 42.272ZM294.184 62V29.096H299.224V34.928C300.472 32.912 302.08 31.304 304.048 30.104C306.064 28.904 308.176 28.304 310.384 28.304C313.072 28.304 315.352 29.36 317.224 31.472C319.096 33.536 320.032 37.064 320.032 42.056V62H314.992V42.2C314.992 38.744 314.392 36.32 313.192 34.928C312.04 33.536 310.624 32.84 308.944 32.84C307.504 32.84 306.016 33.272 304.48 34.136C302.992 34.952 301.744 36.128 300.736 37.664C299.728 39.152 299.224 40.952 299.224 43.064V62H294.184ZM332.2 62V57.824H340.624V33.272H332.632V29.096H345.808V57.824H353.512V62H332.2ZM342.928 22.184C341.92 22.184 341.056 21.824 340.336 21.104C339.616 20.384 339.256 19.52 339.256 18.512C339.256 17.456 339.592 16.568 340.264 15.848C340.984 15.128 341.872 14.768 342.928 14.768C343.936 14.768 344.8 15.152 345.52 15.92C346.288 16.64 346.672 17.504 346.672 18.512C346.672 19.52 346.288 20.384 345.52 21.104C344.8 21.824 343.936 22.184 342.928 22.184ZM379 62.576C376.024 62.576 373.384 61.856 371.08 60.416C368.824 58.928 367.048 56.912 365.752 54.368C364.456 51.776 363.808 48.824 363.808 45.512C363.808 42.152 364.456 39.2 365.752 36.656C367.048 34.064 368.824 32.048 371.08 30.608C373.384 29.12 376.024 28.376 379 28.376C381.976 28.376 384.592 29.12 386.848 30.608C389.152 32.048 390.952 34.064 392.248 36.656C393.544 39.2 394.192 42.152 394.192 45.512C394.192 48.824 393.544 51.776 392.248 54.368C390.952 56.912 389.152 58.928 386.848 60.416C384.592 61.856 381.976 62.576 379 62.576ZM379 58.256C380.92 58.256 382.6 57.704 384.04 56.6C385.48 55.496 386.608 53.984 387.424 52.064C388.288 50.144 388.72 47.936 388.72 45.44C388.72 41.696 387.808 38.648 385.984 36.296C384.16 33.896 381.832 32.696 379 32.696C376.168 32.696 373.84 33.896 372.016 36.296C370.192 38.648 369.28 41.696 369.28 45.44C369.28 47.936 369.688 50.144 370.504 52.064C371.368 53.984 372.52 55.496 373.96 56.6C375.448 57.704 377.128 58.256 379 58.256ZM405.568 29.096H410.968L410.824 35.144C411.736 32.936 413.152 31.256 415.072 30.104C416.992 28.904 419.056 28.304 421.264 28.304C424.768 28.304 427.672 29.504 429.976 31.904L427.672 35.936L427.384 36.584L426.88 36.296C426.784 35.912 426.64 35.552 426.448 35.216C426.256 34.88 425.848 34.472 425.224 33.992C424.456 33.512 423.736 33.2 423.064 33.056C422.44 32.864 421.72 32.768 420.904 32.768C419.32 32.768 417.736 33.176 416.152 33.992C414.616 34.808 413.344 36.08 412.336 37.808C411.328 39.536 410.824 41.792 410.824 44.576V62.072H405.568V29.096Z" fill="#F7CC42"/>
<path d="M0.456 62V17.144H15.72C19.176 17.144 22.032 17.744 24.288 18.944C26.544 20.144 28.2 21.752 29.256 23.768C30.36 25.736 30.912 27.92 30.912 30.32C30.912 32.672 30.384 34.832 29.328 36.8C28.272 38.72 26.64 40.28 24.432 41.48C22.224 42.632 19.44 43.208 16.08 43.208H8.736V62H0.456ZM8.736 36.44H15.504C17.808 36.44 19.56 35.864 20.76 34.712C21.96 33.56 22.56 32.096 22.56 30.32C22.56 28.544 21.96 27.08 20.76 25.928C19.56 24.776 17.832 24.2 15.576 24.2H8.736V36.44ZM42.072 74.672C40.44 74.672 39 74.408 37.752 73.88C36.504 73.352 35.28 72.584 34.08 71.576L36.888 65.96L37.176 65.312L37.824 65.6C37.968 65.984 38.136 66.344 38.328 66.68C38.52 67.016 38.952 67.4 39.624 67.832C40.344 68.216 41.16 68.408 42.072 68.408C43.512 68.408 44.664 67.808 45.528 66.608C46.44 65.408 47.352 63.512 48.264 60.92L35.232 28.52H43.368L51.936 50.624L55.536 40.4C56.256 38.336 56.856 36.344 57.336 34.424C57.816 32.504 58.128 30.536 58.272 28.52H65.832C65.64 30.68 65.136 32.96 64.32 35.36C63.504 37.76 62.688 40.04 61.872 42.2L53.592 64.952C52.248 68.504 50.616 71 48.696 72.44C46.824 73.928 44.616 74.672 42.072 74.672ZM90.528 62.72C87.936 62.72 85.8 62.168 84.12 61.064C82.44 59.912 81.216 58.016 80.448 55.376C79.68 52.736 79.392 49.16 79.584 44.648L79.944 34.928H73.104L73.248 28.52H80.232L80.52 20.6L88.944 19.52L89.592 19.448L89.664 20.096C89.424 20.432 89.208 20.792 89.016 21.176C88.872 21.512 88.776 22.064 88.728 22.832L88.224 28.52H99.024L98.952 34.928H88.152L87.72 44.504C87.576 47.624 87.672 50.024 88.008 51.704C88.392 53.384 88.944 54.56 89.664 55.232C90.432 55.856 91.344 56.168 92.4 56.168C93.936 56.168 95.304 55.856 96.504 55.232C97.752 54.608 98.904 53.888 99.96 53.072L101.688 58.976C100.008 60.176 98.256 61.112 96.432 61.784C94.608 62.408 92.64 62.72 90.528 62.72ZM108.96 13.688H117.744V14.336C117.504 14.624 117.336 14.96 117.24 15.344C117.192 15.68 117.168 16.232 117.168 17V32.912C118.368 31.184 119.856 29.888 121.632 29.024C123.408 28.16 125.184 27.728 126.96 27.728C130.176 27.728 132.768 28.832 134.736 31.04C136.704 33.2 137.688 36.776 137.688 41.768V62H129.48V41.912C129.48 38.984 129.048 36.944 128.184 35.792C127.368 34.592 126.24 33.992 124.8 33.992C122.736 33.992 120.936 34.784 119.4 36.368C117.912 37.904 117.168 40.04 117.168 42.776V62H108.96V13.688ZM158.928 62.72C155.952 62.72 153.24 62 150.792 60.56C148.392 59.072 146.496 57.032 145.104 54.44C143.712 51.8 143.016 48.728 143.016 45.224C143.016 41.912 143.712 38.936 145.104 36.296C146.496 33.656 148.392 31.568 150.792 30.032C153.24 28.496 155.952 27.728 158.928 27.728C161.952 27.728 164.664 28.496 167.064 30.032C169.512 31.568 171.432 33.656 172.824 36.296C174.264 38.936 174.984 41.912 174.984 45.224C174.984 48.68 174.264 51.728 172.824 54.368C171.432 57.008 169.512 59.072 167.064 60.56C164.664 62 161.952 62.72 158.928 62.72ZM158.928 56.24C161.232 56.24 163.128 55.232 164.616 53.216C166.104 51.152 166.848 48.488 166.848 45.224C166.848 41.864 166.104 39.2 164.616 37.232C163.128 35.264 161.232 34.28 158.928 34.28C156.72 34.28 154.872 35.264 153.384 37.232C151.896 39.2 151.152 41.864 151.152 45.224C151.152 48.488 151.872 51.152 153.312 53.216C154.8 55.232 156.672 56.24 158.928 56.24ZM180.96 62V28.52H189.096V33.128C190.296 31.496 191.688 30.2 193.272 29.24C194.856 28.232 196.68 27.728 198.744 27.728C200.664 27.728 202.44 28.208 204.072 29.168C205.752 30.08 207.096 31.568 208.104 33.632C209.112 35.696 209.616 38.408 209.616 41.768V62H201.48V41.912C201.48 39.176 201.048 37.184 200.184 35.936C199.32 34.64 198.12 33.992 196.584 33.992C195.384 33.992 194.208 34.328 193.056 35C191.904 35.624 190.944 36.536 190.176 37.736C189.456 38.936 189.096 40.376 189.096 42.056V62H180.96Z" fill="#396C9D"/>
</svg>
